<svg width="44" height="44" viewBox="0 0 44 44" fill="none" xmlns="http://www.w3.org/2000/svg">
<rect width="44" height="44" rx="8" fill="#E6F9EF"/>
<path d="M22.0002 32.7501C21.3302 32.7501 20.6502 32.5801 20.0502 32.2301L14.1102 28.8001C12.9102 28.1001 12.1602 26.8101 12.1602 25.4201V18.5801C12.1602 17.1901 12.9102 15.9001 14.1102 15.2001L20.0502 11.7701C21.2502 11.0701 22.7402 11.0701 23.9502 11.7701L29.8902 15.2001C31.0902 15.9001 31.8402 17.1901 31.8402 18.5801V25.4201C31.8402 26.8101 31.0902 28.1001 29.8902 28.8001L23.9502 32.2301C23.3502 32.5801 22.6702 32.7501 22.0002 32.7501ZM22.0002 12.7501C21.5902 12.7501 21.1702 12.8601 20.8002 13.0701L14.8602 16.5001C14.1202 16.9301 13.6602 17.7201 13.6602 18.5801V25.4201C13.6602 26.2701 14.1202 27.0701 14.8602 27.5001L20.8002 30.9301C21.5402 31.3601 22.4602 31.3601 23.2002 30.9301L29.1402 27.5001C29.8802 27.0701 30.3402 26.2801 30.3402 25.4201V18.5801C30.3402 17.7301 29.8802 16.9301 29.1402 16.5001L23.2002 13.0701C22.8302 12.8601 22.4102 12.7501 22.0002 12.7501Z" fill="#15803D"/>
<path d="M21.9999 21.7498C20.2999 21.7498 18.9199 20.3698 18.9199 18.6698C18.9199 16.9698 20.2999 15.5898 21.9999 15.5898C23.6999 15.5898 25.0799 16.9698 25.0799 18.6698C25.0799 20.3698 23.6999 21.7498 21.9999 21.7498ZM21.9999 17.0898C21.1299 17.0898 20.4199 17.7998 20.4199 18.6698C20.4199 19.5398 21.1299 20.2498 21.9999 20.2498C22.8699 20.2498 23.5799 19.5398 23.5799 18.6698C23.5799 17.7998 22.8699 17.0898 21.9999 17.0898Z" fill="#15803D"/>
<path d="M26 27.4103C25.59 27.4103 25.25 27.0703 25.25 26.6603C25.25 25.2803 23.79 24.1504 22 24.1504C20.21 24.1504 18.75 25.2803 18.75 26.6603C18.75 27.0703 18.41 27.4103 18 27.4103C17.59 27.4103 17.25 27.0703 17.25 26.6603C17.25 24.4503 19.38 22.6504 22 22.6504C24.62 22.6504 26.75 24.4503 26.75 26.6603C26.75 27.0703 26.41 27.4103 26 27.4103Z" fill="#15803D"/>
</svg>
