<svg width="20" height="20" viewBox="0 0 20 20" fill="none" xmlns="http://www.w3.org/2000/svg">
<path d="M13.4917 1.66663H6.50835C3.47502 1.66663 1.66669 3.47496 1.66669 6.50829V13.4833C1.66669 16.525 3.47502 18.3333 6.50835 18.3333H13.4834C16.5167 18.3333 18.325 16.525 18.325 13.4916V6.50829C18.3334 3.47496 16.525 1.66663 13.4917 1.66663ZM15.4417 10.4416L11.8667 14.0166C11.7417 14.1416 11.5834 14.2 11.425 14.2C11.2667 14.2 11.1084 14.1416 10.9834 14.0166C10.7417 13.775 10.7417 13.375 10.9834 13.1333L13.4917 10.625H5.00002C4.65835 10.625 4.37502 10.3416 4.37502 9.99996C4.37502 9.65829 4.65835 9.37496 5.00002 9.37496H13.4917L10.9834 6.86663C10.7417 6.62496 10.7417 6.22496 10.9834 5.98329C11.225 5.74163 11.625 5.74163 11.8667 5.98329L15.4417 9.55829C15.5584 9.67496 15.625 9.83329 15.625 9.99996C15.625 10.1666 15.5584 10.325 15.4417 10.4416Z" fill="#3741CE"/>
</svg>
